<svg width="610" height="534" viewBox="0 0 610 534" fill="none" xmlns="http://www.w3.org/2000/svg">
<mask id="mask0_1374_12997" style="mask-type:alpha" maskUnits="userSpaceOnUse" x="0" y="72" width="114" height="115">
<rect y="72.5586" width="113.72" height="113.72" fill="#D9D9D9"/>
</mask>
<g mask="url(#mask0_1374_12997)">
<path d="M52.1195 167.329V109.64L25.5849 136.174L18.9513 129.422L56.8578 91.5156L94.7644 129.422L88.1308 136.174L61.5962 109.64V167.329H52.1195Z" fill="#B5BECA"/>
</g>
<mask id="mask1_1374_12997" style="mask-type:alpha" maskUnits="userSpaceOnUse" x="429" y="145" width="181" height="181">
<rect x="429.73" y="145.82" width="179.327" height="179.327" fill="#D9D9D9"/>
</mask>
<g mask="url(#mask1_1374_12997)">
<path d="M511.92 295.264V204.293L470.077 246.136L459.616 235.489L519.392 175.713L579.167 235.489L568.706 246.136L526.864 204.293V295.264H511.92Z" fill="#B5BECA"/>
</g>
<mask id="mask2_1374_12997" style="mask-type:alpha" maskUnits="userSpaceOnUse" x="313" y="13" width="181" height="180">
<rect x="313.823" y="13.5137" width="179.327" height="179.327" fill="#D9D9D9"/>
</mask>
<g mask="url(#mask2_1374_12997)">
<path d="M396.012 162.958V71.9865L354.169 113.829L343.708 103.182L403.484 43.4062L463.26 103.182L452.799 113.829L410.956 71.9865V162.958H396.012Z" fill="#F6F8FE"/>
</g>
<mask id="mask3_1374_12997" style="mask-type:alpha" maskUnits="userSpaceOnUse" x="-22" y="192" width="180" height="181">
<rect x="-21.8689" y="192.841" width="179.327" height="179.327" fill="#D9D9D9"/>
</mask>
<g mask="url(#mask3_1374_12997)">
<path d="M60.3202 342.285V251.314L18.4772 293.157L8.01648 282.509L67.7922 222.733L127.568 282.509L117.107 293.157L75.2641 251.314V342.285H60.3202Z" fill="#F6F8FE"/>
</g>
<mask id="mask4_1374_12997" style="mask-type:alpha" maskUnits="userSpaceOnUse" x="237" y="365" width="180" height="180">
<rect x="237.281" y="365.607" width="179.327" height="179.327" fill="#D9D9D9"/>
</mask>
<g mask="url(#mask4_1374_12997)">
<path d="M319.47 515.051V424.08L277.627 465.923L267.166 455.276L326.942 395.5L386.718 455.276L376.257 465.923L334.414 424.08V515.051H319.47Z" fill="#F6F8FE"/>
</g>
<mask id="mask5_1374_12997" style="mask-type:alpha" maskUnits="userSpaceOnUse" x="126" y="-24" width="148" height="147">
<rect x="126.842" y="-23.6631" width="146.523" height="146.523" fill="#D9D9D9"/>
</mask>
<g mask="url(#mask5_1374_12997)">
<path d="M193.996 98.444V24.1139L159.807 58.3027L151.26 49.6028L200.101 0.761719L248.942 49.6028L240.395 58.3027L206.206 24.1139V98.444H193.996Z" fill="#F6F8FE"/>
</g>
<path d="M364.74 108.887L366.816 107.494L364.74 108.887C365.729 110.36 367.208 111.434 368.914 111.92L403.915 121.88C404.838 122.143 405.529 122.91 405.694 123.855L411.941 159.706C412.245 161.453 413.159 163.036 414.52 164.174L442.444 187.509C443.18 188.124 443.5 189.107 443.266 190.037L434.391 225.329C433.958 227.049 434.149 228.867 434.93 230.46L450.949 263.136C451.371 263.997 451.263 265.024 450.671 265.779L428.209 294.411C427.114 295.806 426.549 297.544 426.614 299.317L427.958 335.683C427.993 336.642 427.477 337.536 426.629 337.985L394.463 355.005C392.895 355.834 391.672 357.193 391.011 358.838L377.447 392.607C377.089 393.497 376.254 394.104 375.296 394.169L338.989 396.635C337.219 396.755 335.55 397.498 334.276 398.733L308.15 424.065C307.461 424.733 306.451 424.947 305.55 424.618L271.378 412.102C269.713 411.492 267.885 411.492 266.22 412.102L232.048 424.618C231.148 424.947 230.137 424.733 229.448 424.065L203.322 398.733C202.048 397.498 200.379 396.755 198.609 396.635L162.302 394.169C161.345 394.104 160.509 393.497 160.151 392.607L146.587 358.838C145.926 357.193 144.703 355.834 143.135 355.005L110.97 337.985L109.8 340.195L110.969 337.985C110.121 337.536 109.605 336.642 109.64 335.683L110.984 299.317C111.049 297.544 110.484 295.806 109.39 294.411L107.423 295.954L109.39 294.411L86.9274 265.779C86.3351 265.024 86.2272 263.997 86.6495 263.136L102.668 230.46L100.423 229.359L102.668 230.46C103.449 228.867 103.64 227.049 103.207 225.329L94.3325 190.037C94.0985 189.107 94.4177 188.124 95.1539 187.509L123.078 164.174C124.439 163.036 125.353 161.453 125.657 159.706L131.904 123.855C132.069 122.91 132.76 122.143 133.683 121.88L168.684 111.92C170.39 111.434 171.869 110.36 172.858 108.887L193.147 78.6771C193.682 77.8806 194.625 77.4605 195.575 77.5959L231.602 82.733C233.357 82.9834 235.145 82.6034 236.648 81.6605L267.47 62.3142C268.283 61.8041 269.315 61.8041 270.128 62.3142L300.951 81.6605C302.453 82.6034 304.241 82.9834 305.996 82.733L342.023 77.5959C342.973 77.4605 343.916 77.8806 344.451 78.6771L364.74 108.887Z" fill="#FAFBFB" stroke="#FF4E4E" stroke-width="5"/>
<path fill-rule="evenodd" clip-rule="evenodd" d="M333.895 335.747C337.909 326.635 335.035 316.431 332.282 306.656C329.514 296.829 326.868 287.434 331.463 280.016C333.919 276.052 337.363 271.919 341.133 267.396L341.134 267.395L341.134 267.395C351.434 255.038 364.16 239.769 365.771 217.067C366.582 205.557 364.921 198.12 356.472 185.501C327.975 142.909 238.233 108.973 201.526 134.147C195.518 138.264 191.246 141.487 184.164 147.953C169.806 161.056 166.555 174.538 169.923 190.311C170.094 191.108 170.283 192.022 170.496 193.049L170.496 193.05C174.497 212.343 186.716 271.277 234.661 333.222C264.219 368.3 273.246 366.23 280.783 364.502L280.783 364.502L280.784 364.502L280.784 364.502C281.443 364.351 282.09 364.202 282.739 364.081C290.81 362.579 325.842 354.026 333.898 335.76L333.895 335.747ZM315.848 329.54C301.245 341.855 286.922 335.408 264.433 308.706C241.943 282.004 173.318 183.554 210.783 151.964C248.261 120.37 318.767 165.693 340.734 191.754C362.697 217.823 337.125 244.336 322.07 257.024C314.486 263.416 316.67 278.644 318.838 293.757C320.973 308.642 323.092 323.416 315.846 329.527L315.848 329.54ZM230.783 242.718L275.497 268.155L319.965 242.201L275.681 303.739L230.783 242.718ZM228.308 229.846L275.769 158.094L322.269 229.301L275.43 256.663L228.308 229.846ZM306.887 318.23C317.279 311.677 305.155 279.037 305.155 279.037L305.153 279.024L283.161 309.9C283.161 309.9 296.495 324.783 306.887 318.23ZM266.26 154.592C266.26 154.592 223.092 147.133 213.764 163.619C202.496 183.537 220.709 221.03 220.709 221.03L266.26 154.592ZM338.78 207.661C338.213 194.511 295.26 167.287 295.26 167.287L330.709 224.174C330.709 224.174 339.347 220.811 338.78 207.661Z" fill="#FF4E4E"/>
<rect x="273.898" y="312.019" width="281.8" height="128.091" rx="30" fill="black"/>
<path d="M333.884 357.712V370.736H346.612V380.504H333.884V393.676H323.376V380.504H310.648V370.736H323.376V357.712H333.884ZM371.919 347.648V403H360.523V362.004L353.493 366.962L348.461 357.934L363.557 347.648H371.919ZM401.203 346.834C413.487 346.834 422.145 356.898 422.145 375.324C422.145 393.676 413.487 403.814 401.203 403.814C388.771 403.814 380.187 393.676 380.187 375.324C380.187 356.898 388.771 346.834 401.203 346.834ZM401.203 356.972C394.691 356.972 391.805 363.336 391.805 375.324C391.805 387.312 394.691 393.676 401.203 393.676C407.641 393.676 410.527 387.312 410.527 375.324C410.527 363.336 407.641 356.972 401.203 356.972ZM440.166 346.834C447.714 346.834 453.19 352.31 453.19 360.746C453.19 369.108 447.714 374.658 440.166 374.658C432.618 374.658 427.068 369.108 427.068 360.746C427.068 352.31 432.618 346.834 440.166 346.834ZM481.236 347.648L444.754 403H434.32L470.802 347.648H481.236ZM440.166 354.382C437.058 354.382 434.986 356.676 434.986 360.746C434.986 364.742 437.058 367.184 440.166 367.184C443.2 367.184 445.272 364.816 445.272 360.746C445.272 356.676 443.274 354.382 440.166 354.382ZM475.464 375.99C483.012 375.99 488.488 381.392 488.488 389.828C488.488 398.264 483.012 403.814 475.464 403.814C467.916 403.814 462.366 398.264 462.366 389.828C462.366 381.392 467.916 375.99 475.464 375.99ZM475.464 383.464C472.282 383.464 470.284 385.832 470.284 389.828C470.284 393.898 472.356 396.266 475.464 396.266C478.572 396.266 480.57 393.972 480.57 389.828C480.57 385.832 478.572 383.464 475.464 383.464ZM506.969 346.464L506.747 355.492L515.257 352.532L517.107 358.156L508.523 360.894L513.925 367.924L509.115 371.476L504.009 364.15L498.829 371.55L494.019 367.924L499.421 360.894L490.837 358.156L492.687 352.532L501.197 355.492L500.975 346.464H506.969Z" fill="white"/>
<mask id="mask6_1374_12997" style="mask-type:alpha" maskUnits="userSpaceOnUse" x="38" y="300" width="235" height="234">
<rect x="38.2714" y="300" width="234" height="234" fill="#D9D9D9"/>
</mask>
<g mask="url(#mask6_1374_12997)">
<path d="M125.517 475.005V356.299L70.917 410.899L57.267 397.005L135.267 319.005L213.267 397.005L199.617 410.899L145.017 356.299V475.005H125.517Z" fill="#B5BECA"/>
</g>
</svg>
