<svg width="156" height="156" viewBox="0 0 156 156" fill="none" xmlns="http://www.w3.org/2000/svg">
<path d="M52.7743 140.998L51.034 142.793L52.7743 140.998C51.5009 139.764 49.8312 139.02 48.0616 138.9L35.9914 138.08C35.0342 138.015 34.1986 137.408 33.8409 136.518L29.3315 125.292C28.6704 123.646 27.4474 122.288 25.8797 121.458L15.1864 115.8C14.3384 115.351 13.8219 114.457 13.8574 113.498L14.3039 101.408C14.3693 99.6358 13.8045 97.8976 12.7098 96.5021L5.24234 86.9838C4.65013 86.2289 4.54217 85.2017 4.96449 84.3402L2.71972 83.2398L4.96449 84.3402L10.2898 73.4773C11.0705 71.8847 11.2615 70.067 10.829 68.3469L7.87862 56.6142C7.64464 55.6837 7.96381 54.7014 8.70002 54.0861L17.9833 46.3283L16.3801 44.41L17.9833 46.3283C19.3442 45.191 20.2581 43.6081 20.5626 41.8608L22.6394 29.9424C22.8041 28.9972 23.4952 28.2297 24.418 27.9671L36.0541 24.6558C37.76 24.1703 39.2386 23.096 40.2275 21.6236L46.9724 11.5803C47.5073 10.7838 48.4509 10.3637 49.4007 10.4992L61.3776 12.207C63.1335 12.4574 64.9212 12.0774 66.4235 11.1345L65.0944 9.017L66.4235 11.1344L76.6703 4.70286C77.4829 4.1928 78.5158 4.1928 79.3284 4.70286L89.5752 11.1345C91.0774 12.0774 92.8652 12.4574 94.6211 12.207L106.598 10.4992C107.548 10.3637 108.491 10.7838 109.026 11.5803L115.771 21.6236C116.76 23.096 118.239 24.1703 119.945 24.6558L131.581 27.9671C132.503 28.2297 133.195 28.9972 133.359 29.9424L135.436 41.8608C135.741 43.6081 136.654 45.191 138.015 46.3283L147.299 54.0861C148.035 54.7014 148.354 55.6837 148.12 56.6142L145.17 68.3469C144.737 70.067 144.928 71.8847 145.709 73.4773L151.034 84.3402C151.456 85.2017 151.349 86.2289 150.756 86.9837L143.289 96.5021C142.194 97.8975 141.629 99.6358 141.695 101.408L142.141 113.498C142.177 114.457 141.66 115.351 140.812 115.8L130.119 121.458C128.551 122.288 127.328 123.646 126.667 125.292L122.158 136.518C121.8 137.408 120.964 138.015 120.007 138.08L107.937 138.9C106.167 139.02 104.498 139.764 103.224 140.998L94.5387 149.42C93.8499 150.088 92.8396 150.302 91.9387 149.972L80.5787 145.812C78.9132 145.202 77.0854 145.202 75.42 145.812L64.06 149.972C63.159 150.302 62.1487 150.088 61.4599 149.42L52.7743 140.998Z" fill="#FAFBFB" stroke="#FF4E4E" stroke-width="5"/>
<path fill-rule="evenodd" clip-rule="evenodd" d="M104.783 115.312C106.439 111.552 105.253 107.342 104.117 103.308C102.975 99.2524 101.883 95.3758 103.779 92.3147C104.793 90.6786 106.214 88.9731 107.77 87.1067C112.02 82.0072 117.272 75.7064 117.936 66.3384C118.271 61.5889 117.586 58.5198 114.099 53.3126C102.34 35.7369 65.3076 21.733 50.1602 32.1214C47.6813 33.8202 45.9183 35.1501 42.9957 37.8185C37.071 43.2254 35.7293 48.7887 37.1193 55.2977C37.1897 55.6265 37.2679 56.0039 37.3558 56.4277C39.0065 64.389 44.0488 88.7083 63.8337 114.27C76.0308 128.745 79.7559 127.891 82.8661 127.178L82.8662 127.178L82.8663 127.178L82.8665 127.178C83.1383 127.116 83.4054 127.054 83.6731 127.005C87.0037 126.384 101.46 122.855 104.784 115.317L104.783 115.312ZM97.3358 112.751C91.3099 117.833 85.3994 115.173 76.119 104.154C66.8387 93.1352 38.5203 52.5094 53.9804 39.4733C69.4457 26.4362 98.5401 45.1389 107.605 55.8932C116.668 66.6506 106.116 77.5912 99.9034 82.8269C96.7737 85.4647 97.675 91.7485 98.5695 97.9849C99.4505 104.127 100.325 110.224 97.3348 112.746L97.3358 112.751ZM62.2332 76.9236L80.6846 87.4201L99.0344 76.71L80.7606 102.104L62.2332 76.9236ZM61.212 71.6118L80.7969 42.0031L99.9851 71.3867L80.6569 82.6781L61.212 71.6118ZM93.638 108.084C97.9264 105.38 92.9234 91.9105 92.9234 91.9105L92.9224 91.9052L83.8473 104.646C83.8473 104.646 89.3496 110.788 93.638 108.084ZM76.873 40.5578C76.873 40.5578 59.0597 37.4802 55.2102 44.283C50.5607 52.5021 58.0764 67.974 58.0764 67.974L76.873 40.5578ZM106.799 62.4571C106.565 57.0306 88.8398 45.7967 88.8398 45.7967L103.468 69.2712C103.468 69.2712 107.033 67.8836 106.799 62.4571Z" fill="#FF4E4E"/>
</svg>
