<svg viewBox="0 0 70 70" fill="none"
  xmlns="http://www.w3.org/2000/svg">
  <mask id="mask0_1886_21980" style="mask-type:alpha" maskUnits="userSpaceOnUse" x="0" y="0" width="70" height="70">
    <rect width="70" height="70" fill="#D9D9D9"/>
  </mask>
  <g mask="url(#mask0_1886_21980)">
    <path d="M34.9998 49.5833C33.3957 49.5833 32.0224 49.0122 30.88 47.8698C29.7377 46.7274 29.1665 45.3542 29.1665 43.75C29.1665 42.1458 29.7377 40.7726 30.88 39.6302C32.0224 38.4879 33.3957 37.9167 34.9998 37.9167C36.604 37.9167 37.9773 38.4879 39.1196 39.6302C40.262 40.7726 40.8332 42.1458 40.8332 43.75C40.8332 45.3542 40.262 46.7274 39.1196 47.8698C37.9773 49.0122 36.604 49.5833 34.9998 49.5833ZM26.2498 70V59.5C22.1179 58.0903 19.1405 55.6962 17.3175 52.3177C15.4946 48.9392 14.5832 45.1111 14.5832 40.8333H20.4165C20.4165 45.7431 21.6561 49.401 24.1353 51.8073C26.6144 54.2135 30.2359 55.4167 34.9998 55.4167C39.7637 55.4167 43.3853 54.2135 45.8644 51.8073C48.3436 49.401 49.5832 45.7431 49.5832 40.8333H55.4165C55.4165 45.1111 54.505 48.9392 52.6821 52.3177C50.8592 55.6962 47.8818 58.0903 43.7498 59.5V70H26.2498ZM14.5832 37.9167L8.74984 24.2083C8.50678 24.3542 8.09359 24.6094 7.51025 24.974C6.92692 25.3385 6.36789 25.5208 5.83317 25.5208C5.00678 25.5208 4.31407 25.2413 3.75505 24.6823C3.19602 24.1233 2.9165 23.4306 2.9165 22.6042V12.3958C2.9165 8.94444 6.05192 6.01563 12.3228 3.60938C18.5936 1.20313 26.1526 0 34.9998 0C43.8471 0 51.4061 1.20313 57.6769 3.60938C63.9478 6.01563 67.0832 8.94444 67.0832 12.3958V22.6042C67.0832 23.4306 66.8037 24.1233 66.2446 24.6823C65.6856 25.2413 64.9929 25.5208 64.1665 25.5208C63.6318 25.5208 63.0728 25.3385 62.4894 24.974C61.9061 24.6094 61.4929 24.3542 61.2498 24.2083L55.4165 37.9167H49.5832L45.2082 19.6146C43.604 19.3715 41.9512 19.2014 40.2498 19.1042C38.5484 19.0069 36.7984 18.9583 34.9998 18.9583C33.2012 18.9583 31.4512 19.0069 29.7498 19.1042C28.0484 19.2014 26.3957 19.3715 24.7915 19.6146L20.4165 37.9167H14.5832ZM17.1353 32.8125L20.1248 20.3438C18.7637 20.6354 17.4755 20.9514 16.2603 21.2917C15.045 21.6319 13.8783 22.0208 12.7603 22.4583L17.1353 32.8125ZM52.8644 32.7396L57.2394 22.4583C56.1214 22.0208 54.9547 21.6319 53.7394 21.2917C52.5241 20.9514 51.2359 20.6354 49.8748 20.3438L52.8644 32.7396ZM8.74984 17.7188C12.2012 16.2604 16.1752 15.1302 20.6717 14.3281C25.1682 13.526 29.9443 13.125 34.9998 13.125C40.0554 13.125 44.8314 13.526 49.328 14.3281C53.8245 15.1302 57.7984 16.2604 61.2498 17.7188V12.5417C61.0068 12.0556 60.2655 11.4358 59.0259 10.6823C57.7863 9.92882 56.0606 9.1875 53.8488 8.45833C51.637 7.72917 48.9634 7.10938 45.828 6.59896C42.6925 6.08854 39.0832 5.83333 34.9998 5.83333C30.9165 5.83333 27.3071 6.08854 24.1717 6.59896C21.0363 7.10938 18.3627 7.72917 16.1509 8.45833C13.9391 9.1875 12.2134 9.92882 10.9738 10.6823C9.73421 11.4358 8.99289 12.0556 8.74984 12.5417V17.7188Z" fill="#FAFBFB"/>
  </g>
</svg>
