<svg fill="none"
  xmlns="http://www.w3.org/2000/svg" viewBox="0.5 0 28 28">
  <mask id="mask0_1927_37744" style="mask-type:alpha" maskUnits="userSpaceOnUse" x="0" y="0" width="29" height="28">
    <rect x="0.5" width="28" height="28" fill="#D9D9D9"></rect>
  </mask>
  <g mask="url(#mask0_1927_37744)">
    <path d="M6.33333 24.5C5.69167 24.5 5.14236 24.2715 4.68542 23.8146C4.22847 23.3576 4 22.8083 4 22.1667V5.83333C4 5.19167 4.22847 4.64236 4.68542 4.18542C5.14236 3.72847 5.69167 3.5 6.33333 3.5H14.5V5.83333H6.33333V22.1667H22.6667V14H25V22.1667C25 22.8083 24.7715 23.3576 24.3146 23.8146C23.8576 24.2715 23.3083 24.5 22.6667 24.5H6.33333ZM11.8167 18.3167L10.1833 16.6833L21.0333 5.83333H16.8333V3.5H25V11.6667H22.6667V7.46667L11.8167 18.3167Z" fill="#000"></path>
  </g>
</svg>