<svg viewBox="0 0 128 126" fill="none"
  xmlns="http://www.w3.org/2000/svg">
  <path d="M55.6021 11.99C59.5421 5.89549 68.4579 5.8955 72.3979 11.99L83.797 29.6223C85.1463 31.7094 87.2245 33.2194 89.6265 33.8577L109.918 39.2502C116.932 41.1141 119.687 49.5934 115.108 55.2239L101.862 71.5137C100.294 73.442 99.4998 75.8851 99.635 78.3668L100.777 99.3318C101.172 106.578 93.9587 111.819 87.1889 109.204L67.6029 101.64C65.2844 100.744 62.7156 100.744 60.3971 101.64L40.8111 109.204C34.0413 111.819 26.8283 106.578 27.223 99.3318L28.365 78.3668C28.5002 75.8851 27.7064 73.442 26.1383 71.5137L12.8915 55.2239C8.31284 49.5934 11.068 41.1141 18.0817 39.2502L38.3735 33.8577C40.7755 33.2194 42.8537 31.7094 44.203 29.6223L55.6021 11.99Z" fill="white"/>
  <mask id="mask0_2354_18242" style="mask-type:alpha" maskUnits="userSpaceOnUse" x="35" y="35" width="58" height="58">
    <rect x="37" y="37" width="54" height="54" fill="#D9D9D9" stroke="#FF4E4E" stroke-width="4"/>
  </mask>
  <g mask="url(#mask0_2354_18242)">
    <path d="M85.7778 59.968H42C42 47.8791 51.8 38.0791 63.8889 38.0791C75.9778 38.0791 85.7778 47.8791 85.7778 59.968Z" stroke="#FF4E4E" stroke-width="4" stroke-linejoin="round"/>
    <path d="M73.1051 59.968H54.6724C54.6724 47.8791 58.7987 38.0791 63.8887 38.0791C68.9788 38.0791 73.1051 47.8791 73.1051 59.968Z" stroke="#FF4E4E" stroke-width="4" stroke-linejoin="round"/>
    <path d="M85.7778 59.9676H42L63.8889 78.4004L85.7778 59.9676Z" stroke="#FF4E4E" stroke-width="4" stroke-linejoin="round"/>
    <path d="M73.1051 59.9676H54.6724L63.8887 78.4004L73.1051 59.9676Z" stroke="#FF4E4E" stroke-width="4" stroke-linejoin="round"/>
    <rect x="58.1289" y="78.4004" width="11.5205" height="11.5205" stroke="#FF4E4E" stroke-width="4" stroke-linejoin="round"/>
  </g>
</svg>
