<svg width="153" height="35" viewBox="0 0 153 35" fill="none"
  xmlns="http://www.w3.org/2000/svg">
  <path d="M39.3197 24.3366C38.715 21.011 33.7825 19.6917 33.6666 16.7478C33.5507 13.8039 37.1252 9.32423 34.4811 4.76508C33.499 3.07351 32.556 2.18723 30.161 1.21683C22.0817 -2.0604 4.20926 1.5782 1.42581 8.58592C0.969992 9.73233 0.673946 10.589 0.290183 12.1669C-0.488308 15.3647 0.337174 17.564 2.31551 19.4581C4.29385 21.3506 16.8985 31.0701 25.0703 33.3785C33.2421 35.6869 33.8013 34.1309 34.7975 33.1558C35.7937 32.1807 39.9243 27.6636 39.3212 24.3381L39.3197 24.3366ZM36.1806 25.1746C35.2925 28.2851 32.6563 28.7368 26.9374 27.12C21.2186 25.5032 2.15261 18.1871 4.43169 10.2074C6.71077 2.22772 22.951 2.00654 28.5367 3.58441C34.1208 5.16228 31.068 11.2058 30.1516 14.4114C29.2353 17.617 37.0688 22.0624 36.1806 25.173V25.1746Z" fill="#FF1D1D"/>
  <path d="M33.6396 25.0733C33.3326 26.2306 19.5219 23.2509 19.2932 21.9752C19.1835 21.3646 24.5202 17.5811 25.3175 16.3756C26.1868 15.0625 27.5339 6.43328 28.2059 6.47845C30.3518 6.62331 26.6755 13.3179 29.0768 19.1512C29.8976 21.145 33.7712 24.5733 33.6396 25.0717V25.0733Z" fill="#FF1D1D"/>
  <path d="M16.8035 20.5079C14.8737 20.5609 6.19908 12.5345 6.91491 10.033C7.3441 8.53298 19.9676 3.9162 24.8828 5.76197C26.1156 6.22459 24.4114 12.9956 23.5295 15.022C22.964 16.3226 17.9798 20.4752 16.8035 20.5079Z" fill="#FF1D1D"/>
  <g clip-path="url(#clip0_110_7082)">
    <path d="M46.0967 7.92847H50.3373C51.7677 7.92847 52.841 8.31187 53.557 9.08023C54.273 9.84859 54.6302 10.9742 54.6302 12.457V14.2632C54.6302 15.746 54.273 16.8716 53.557 17.6399C52.841 18.4083 51.7677 18.7917 50.3373 18.7917H48.9761V26.252H46.0967V7.92847ZM50.3373 16.174C50.8084 16.174 51.1626 16.0432 51.3966 15.7814C51.6322 15.5196 51.7508 15.0746 51.7508 14.4464V12.2738C51.7508 11.6455 51.6322 11.2005 51.3966 10.9388C51.161 10.677 50.8084 10.5461 50.3373 10.5461H48.9761V16.174H50.3373Z" fill="black"/>
    <path d="M56.2008 7.92847H60.4675C61.9503 7.92847 63.0328 8.27338 63.7134 8.96167C64.394 9.65149 64.7343 10.7109 64.7343 12.1429V13.2685C64.7343 15.1701 64.106 16.3742 62.8496 16.8808V16.9332C63.5471 17.1426 64.0398 17.5706 64.3278 18.2158C64.6157 18.861 64.7589 19.7248 64.7589 20.8073V24.027C64.7589 24.5505 64.7758 24.974 64.8113 25.2973C64.8467 25.6207 64.9329 25.9394 65.073 26.2535H62.1413C62.0366 25.9563 61.9673 25.6776 61.9319 25.4159C61.8964 25.1541 61.8795 24.6829 61.8795 24.0023V20.6518C61.8795 19.8141 61.744 19.229 61.473 18.8979C61.202 18.5669 60.7354 18.4006 60.0733 18.4006H59.0786V26.2535H56.1992V7.92847H56.2008ZM60.1272 15.7814C60.7031 15.7814 61.1342 15.6336 61.4237 15.3364C61.7117 15.0392 61.8564 14.5419 61.8564 13.8443V12.4308C61.8564 11.7672 61.7378 11.2883 61.5023 10.9911C61.2667 10.6939 60.8956 10.5461 60.3905 10.5461H59.0817V15.7814H60.1288H60.1272Z" fill="black"/>
    <path d="M66.75 7.92847H69.6294V26.252H66.75V7.92847Z" fill="black"/>
    <path d="M71.7759 7.92847H75.8856L77.7179 21.0429H77.7703L79.6026 7.92847H83.7123V26.252H80.99V12.3785H80.9376L78.8435 26.252H76.4353L74.3412 12.3785H74.2888V26.252H71.7759V7.92847Z" fill="black"/>
    <path d="M85.8569 7.92847H93.7099V10.5461H88.7363V15.3888H92.689V18.0064H88.7363V23.6343H93.7099V26.252H85.8569V7.92847Z" fill="black"/>
    <path d="M95.9873 25.3236C95.2713 24.529 94.9141 23.3911 94.9141 21.9083V20.8613H97.6364V22.1177C97.6364 23.3049 98.1338 23.8977 99.1285 23.8977C99.6166 23.8977 99.9877 23.753 100.24 23.465C100.493 23.1771 100.619 22.7105 100.619 22.0654C100.619 21.297 100.445 20.6211 100.095 20.0375C99.7459 19.4524 99.1007 18.7502 98.1584 17.931C96.9712 16.884 96.1428 15.937 95.6716 15.0901C95.2005 14.2432 94.9649 13.2886 94.9649 12.223C94.9649 10.7741 95.3313 9.65312 96.0643 8.86013C96.7972 8.0656 97.8612 7.66833 99.2578 7.66833C100.654 7.66833 101.678 8.0656 102.387 8.86013C103.093 9.65466 103.446 10.7926 103.446 12.2754V13.0345H100.724V12.0922C100.724 11.4639 100.602 11.0051 100.357 10.7187C100.112 10.4307 99.7552 10.286 99.284 10.286C98.3247 10.286 97.8443 10.8711 97.8443 12.0398C97.8443 12.7034 98.0229 13.3224 98.3801 13.8983C98.7374 14.4742 99.3872 15.1717 100.331 15.9924C101.535 17.0395 102.364 17.9911 102.818 18.8457C103.272 19.7003 103.498 20.7042 103.498 21.856C103.498 23.3573 103.127 24.509 102.387 25.3113C101.644 26.1135 100.567 26.5154 99.1531 26.5154C97.7396 26.5154 96.7018 26.1181 95.9858 25.3236H95.9873Z" fill="#FF1D1D"/>
    <path d="M107.4 10.5461H104.39V7.92847H113.29V10.5461H110.28V26.252H107.4V10.5461Z" fill="#FF1D1D"/>
    <path d="M115.698 7.92847H119.599L122.583 26.252H119.703L119.18 22.6134V22.6658H115.908L115.384 26.252H112.714L115.698 7.92847ZM118.84 20.179L117.557 11.122H117.505L116.248 20.179H118.84Z" fill="#FF1D1D"/>
    <path d="M123.97 7.92847H126.85V15.6505L130.514 7.92847H133.394L129.965 14.6558L133.446 26.252H130.436L128.001 18.0849L126.85 20.4146V26.252H123.97V7.92847Z" fill="#FF1D1D"/>
    <path d="M134.807 7.92847H142.66V10.5461H137.687V15.3888H141.639V18.0064H137.687V23.6343H142.66V26.252H134.807V7.92847Z" fill="#FF1D1D"/>
    <path d="M144.309 7.92847H148.707C150.137 7.92847 151.21 8.31187 151.926 9.08023C152.642 9.84859 153 10.9742 153 12.457V21.7235C153 23.2063 152.642 24.3319 151.926 25.1002C151.21 25.8686 150.137 26.252 148.707 26.252H144.309V7.92847ZM148.654 23.6343C149.126 23.6343 149.487 23.4942 149.74 23.2155C149.992 22.9368 150.119 22.4826 150.119 21.8543V12.3261C150.119 11.6979 149.992 11.2436 149.74 10.9649C149.487 10.6862 149.124 10.5461 148.654 10.5461H147.188V23.6343H148.654Z" fill="#FF1D1D"/>
  </g>
  <defs>
    <clipPath id="clip0_110_7082">
      <rect width="106.903" height="18.847" fill="white" transform="translate(46.0967 7.66675)"/>
    </clipPath>
  </defs>
</svg>
