<svg viewBox="0 0 120 120" fill="none"
  xmlns="http://www.w3.org/2000/svg">
  <rect x="1" y="1" width="118" height="118" rx="59" fill="#141214"/>
  <rect x="1" y="1" width="118" height="118" rx="59" stroke="#B5BECA" stroke-width="2"/>
  <path fill-rule="evenodd" clip-rule="evenodd" d="M55.2046 21.2184C55.2046 20.8316 55.5017 20.5 55.853 20.5H64.12C64.4712 20.5 64.7684 20.8316 64.7684 21.2184V39.953C64.7684 40.6714 65.5789 40.9477 65.9301 40.3398L75.3319 24.1198C75.521 23.7882 75.9263 23.6777 76.2235 23.9264L83.0046 29.287C83.2748 29.508 83.3559 29.9502 83.1667 30.2817L75.2509 43.9596C74.9807 44.4293 75.2779 45.0649 75.7912 45.0649H94.3516C94.7028 45.0649 95 45.3965 95 45.7833V55.1229C95 55.5098 94.7028 55.8414 94.3516 55.8414H86.9491C81.7619 55.8414 77.169 52.3874 72.6303 48.961C70.8201 47.607 69.01 46.2254 67.1999 45.1201C65.0656 43.7938 62.6071 43.0477 60.0135 43.0477C57.4199 43.0477 54.9614 43.7938 52.8271 45.1201C50.99 46.2531 49.2069 47.607 47.3968 48.961C42.858 52.3874 38.2922 55.8414 33.078 55.8414H25.6484C25.2972 55.8414 25 55.5098 25 55.1229V45.7833C25 45.3965 25.2972 45.0649 25.6484 45.0649H44.2088C44.7221 45.0649 45.0193 44.4293 44.7491 43.9596L36.8333 30.2817C36.6442 29.9502 36.7252 29.5357 36.9954 29.287L43.7765 23.9264C44.0737 23.7053 44.479 23.7882 44.6681 24.1198L54.0428 40.3398C54.3941 40.9477 55.2046 40.6714 55.2046 39.953V21.2184ZM47.3427 71.0666C42.8039 67.6679 38.2381 64.1863 33.0239 64.1863H25.6484C25.2972 64.1863 25 64.5178 25 64.9047V74.2443C25 74.6312 25.2972 74.9627 25.6484 74.9627H44.2088C44.7221 74.9627 45.0193 75.5983 44.7491 76.068L36.8333 89.7459C36.6442 90.0775 36.7252 90.492 36.9954 90.7406L43.7765 96.1013C44.0737 96.3223 44.479 96.2394 44.6681 95.9078L54.0428 79.6878C54.3941 79.0799 55.2046 79.3562 55.2046 80.0747V98.7816C55.2046 99.1684 55.5017 99.5 55.853 99.5H64.12C64.4712 99.5 64.7684 99.1684 64.7684 98.7816V80.047C64.7684 79.3286 65.5789 79.0523 65.9301 79.6602L75.3319 95.8802C75.521 96.2118 75.9263 96.3223 76.2235 96.0736L83.0046 90.713C83.2748 90.492 83.3559 90.0498 83.1667 89.7183L75.2509 76.0404C74.9807 75.5707 75.2779 74.9351 75.7912 74.9351H94.3516C94.7028 74.9351 95 74.6035 95 74.2167V64.8771C95 64.4902 94.7028 64.1586 94.3516 64.1586H86.9491C81.7619 64.1586 77.169 67.6126 72.6303 71.039C70.8201 72.393 69.01 73.7746 67.1999 74.8799C65.0656 76.2062 62.6071 76.9523 60.0135 76.9523C57.4199 76.9523 54.9614 76.2062 52.8271 74.8799C50.99 73.7469 49.2069 72.393 47.3968 71.039L47.3427 71.0666ZM59.9865 74.0233C66.7677 74.0233 72.279 67.7508 72.279 60.0138C72.279 52.2768 66.7677 46.0044 59.9865 46.0044C53.2053 46.0044 47.6939 52.2768 47.6939 60.0138C47.6939 67.7508 53.2053 74.0233 59.9865 74.0233Z" fill="white"/>
</svg>
