<svg viewBox="0 0 70 70" fill="none"
  xmlns="http://www.w3.org/2000/svg">
  <g clip-path="url(#clip0_1886_22036)">
    <path d="M35 0.5C54.0516 0.5 69.5 15.9484 69.5 35C69.5 54.0516 54.0516 69.5 35 69.5C15.9484 69.5 0.5 54.0516 0.5 35C0.5 15.9484 15.9484 0.5 35 0.5Z" fill="#141214" stroke="#B5BECA"/>
    <path d="M47.7946 40.3664C49.2724 37.5664 50.2057 34.6498 50.5557 31.7331C50.9057 28.8942 50.6724 26.1331 49.9335 23.7609C49.0002 20.8831 47.3668 18.6664 45.1113 17.2275C43.5168 19.5998 39.8224 25.8609 37.178 35.3109C34.5335 44.6442 30.4891 49.6998 28.0391 52.0331C28.9724 52.3053 29.9835 52.422 31.0335 52.422C34.1057 52.422 37.3335 51.2942 40.328 49.1164C43.3613 46.9387 45.928 43.9442 47.7946 40.3664Z" fill="#E8C787"/>
    <path d="M25.3942 50.9444C26.0553 50.3999 27.1053 49.3888 28.272 47.8722C30.1387 45.461 32.7831 41.2222 34.6498 34.611C37.3331 25.1222 40.9498 18.861 42.7387 16.0999C41.6109 15.711 40.4053 15.5166 39.1609 15.5166C36.0887 15.5166 32.8609 16.6444 29.8664 18.8222C26.8331 20.9999 24.2664 23.9944 22.3998 27.5722C20.922 30.3722 19.9887 33.2888 19.6387 36.2055C19.2887 39.0444 19.522 41.8055 20.2609 44.1777C21.2331 47.1722 22.9831 49.5055 25.3942 50.9055V50.9444Z" fill="#E8C787"/>
  </g>
  <defs>
    <clipPath id="clip0_1886_22036">
      <rect width="70" height="70" fill="white"/>
    </clipPath>
  </defs>
</svg>
