<svg viewBox="0 0 72 72" fill="none"
  xmlns="http://www.w3.org/2000/svg">
  <path d="M32.25 2.74241C34.5705 1.40267 37.4295 1.40267 39.75 2.74241L62.9269 16.1236C65.2474 17.4634 66.6769 19.9393 66.6769 22.6188V49.3812C66.6769 52.0607 65.2474 54.5366 62.9269 55.8764L39.75 69.2576C37.4295 70.5973 34.5705 70.5973 32.25 69.2576L9.07308 55.8764C6.75258 54.5366 5.32309 52.0607 5.32309 49.3812L5.32309 22.6188C5.32309 19.9393 6.75258 17.4634 9.07309 16.1236L32.25 2.74241Z" fill="#141214" stroke="#B5BECA"/>
  <path fill-rule="evenodd" clip-rule="evenodd" d="M33.5338 16.3638C33.5338 16.1679 33.6866 16 33.8672 16H38.1189C38.2995 16 38.4523 16.1679 38.4523 16.3638V25.8496C38.4523 26.2134 38.8692 26.3533 39.0498 26.0455L43.885 17.8328C43.9822 17.6649 44.1907 17.609 44.3435 17.7349L47.831 20.4491C47.9699 20.561 48.0116 20.7849 47.9143 20.9528L43.8433 27.8783C43.7044 28.1161 43.8572 28.4379 44.1212 28.4379H53.6665C53.8472 28.4379 54 28.6058 54 28.8017V33.5306C54 33.7265 53.8472 33.8944 53.6665 33.8944H49.8595C47.1918 33.8944 44.8298 32.1455 42.4956 30.4106C41.5646 29.7251 40.6337 29.0255 39.7028 28.4659C38.6052 27.7943 37.3408 27.4166 36.0069 27.4166C34.6731 27.4166 33.4087 27.7943 32.3111 28.4659C31.3663 29.0395 30.4492 29.7251 29.5183 30.4106C27.1841 32.1455 24.836 33.8944 22.1544 33.8944H18.3335C18.1528 33.8944 18 33.7265 18 33.5306V28.8017C18 28.6058 18.1528 28.4379 18.3335 28.4379H27.8788C28.1428 28.4379 28.2956 28.1161 28.1567 27.8783L24.0857 20.9528C23.9884 20.7849 24.0301 20.575 24.169 20.4491L27.6565 17.7349C27.8093 17.6229 28.0178 17.6649 28.115 17.8328L32.9363 26.0455C33.1169 26.3533 33.5338 26.2134 33.5338 25.8496V16.3638ZM29.4905 41.6034C27.1563 39.8825 24.8082 38.1196 22.1266 38.1196H18.3335C18.1528 38.1196 18 38.2875 18 38.4834V43.2123C18 43.4082 18.1528 43.5761 18.3335 43.5761H27.8788C28.1428 43.5761 28.2956 43.8979 28.1567 44.1357L24.0857 51.0612C23.9884 51.2291 24.0301 51.439 24.169 51.5649L27.6565 54.2791C27.8093 54.391 28.0178 54.3491 28.115 54.1812L32.9363 45.9685C33.1169 45.6607 33.5338 45.8006 33.5338 46.1644V55.6362C33.5338 55.8321 33.6866 56 33.8672 56H38.1189C38.2995 56 38.4523 55.8321 38.4523 55.6362V46.1504C38.4523 45.7866 38.8692 45.6467 39.0498 45.9545L43.885 54.1672C43.9822 54.3351 44.1907 54.391 44.3435 54.2651L47.831 51.5509C47.9699 51.439 48.0116 51.2151 47.9143 51.0472L43.8433 44.1217C43.7044 43.8839 43.8572 43.5621 44.1212 43.5621H53.6665C53.8472 43.5621 54 43.3942 54 43.1983V38.4694C54 38.2735 53.8472 38.1056 53.6665 38.1056H49.8595C47.1918 38.1056 44.8298 39.8545 42.4956 41.5894C41.5646 42.2749 40.6337 42.9745 39.7028 43.5341C38.6052 44.2057 37.3408 44.5834 36.0069 44.5834C34.6731 44.5834 33.4087 44.2057 32.3111 43.5341C31.3663 42.9605 30.4492 42.2749 29.5183 41.5894L29.4905 41.6034ZM35.9931 43.1004C39.4805 43.1004 42.3149 39.9244 42.3149 36.007C42.3149 32.0895 39.4805 28.9136 35.9931 28.9136C32.5056 28.9136 29.6712 32.0895 29.6712 36.007C29.6712 39.9244 32.5056 43.1004 35.9931 43.1004Z" fill="#E8C787"/>
</svg>
